<svg xmlns="http://www.w3.org/2000/svg" viewBox="0 0 151.32 49.46"><defs><style>.cls-1{fill:#fbcb00}.cls-2{fill:#00569d}</style></defs><path class="cls-1" d="M101.66 0h49.66v49.46h-49.66z"/><path class="cls-2" d="M0 0h101.66v49.46H0z"/><path class="cls-1" d="M35.56 24.89H15.64c-1 0-3.19 0-3.19-2.92v-6.9c0-2.7 1.83-2.7 3-2.7h20.4v3H15.48v1.8h20.4v3h-20.4v1.72h20.4v3z"/><path d="M88.9 24.89h-20a3.08 3.08 0 0 1-2.32-.82 3.17 3.17 0 0 1-.8-2.4v-6.15a3.11 3.11 0 0 1 .8-2.33 3.06 3.06 0 0 1 2.32-.74h20.31v2.92H69.38a.68.68 0 0 0-.48.15.59.59 0 0 0-.16.45v5.25a.67.67 0 0 0 .16.52c.08.15.24.15.48.15h19.83v3zm-36.63 0h-3.2v-9.45H37.16v-3.07h27.26v3H52.59v9.52h-.32z" fill="#fbca00"/><path class="cls-2" d="M116.24 16.33a5 5 0 0 1 5-3.69c3 0 4.47 1.76 4.47 4.06s-1.5 3.81-3.74 5.24l-.82.53h4.69V25h-9.47v-2l1.45-1c2.84-2 5.1-3.35 5.1-5.07a1.57 1.57 0 0 0-1.79-1.68 2.63 2.63 0 0 0-2.57 2zm11.81-3.57h8.19v2.54h-5.88l-.23 1.89a6.57 6.57 0 0 1 2.5-.35c2.78 0 4.31 1.66 4.31 4.09s-1.88 4.22-5 4.22c-2.39 0-4.18-.74-5.35-3.14l2.45-1.08a3 3 0 0 0 2.83 1.59c1.42 0 2.23-.61 2.23-1.54s-.77-1.7-2.26-1.7a4.25 4.25 0 0 0-2.64.76L127.4 19z"/><path d="M19.11 36.38h-.84v-4.56h3v.69h-2.16zm4.61-4.56a4.14 4.14 0 0 1 .58 0 1.59 1.59 0 0 1 .57.18 1.13 1.13 0 0 1 .44.43 1.38 1.38 0 0 1 .18.76 1.54 1.54 0 0 1-.1.58 1.12 1.12 0 0 1-.3.47 1.52 1.52 0 0 1-.55.31 2.78 2.78 0 0 1-.83.11h-1v1.68h-.81v-4.52zm-1 2.19h1L24 34a.75.75 0 0 0 .3-.09.6.6 0 0 0 .23-.22.8.8 0 0 0 .09-.41.73.73 0 0 0-.1-.42.59.59 0 0 0-.24-.23.86.86 0 0 0-.3-.09H22.7zm6.19-2.19h.88l-1.54 3.68a1.92 1.92 0 0 1-.25.5 1.28 1.28 0 0 1-.34.29.84.84 0 0 1-.33.1h-.61l-.3-.06v-.73a1.55 1.55 0 0 0 .23.06h.46a.58.58 0 0 0 .18-.08.5.5 0 0 0 .15-.17.82.82 0 0 0 .11-.28l-1.74-3.36h1L28 34.28zm2.24 4.56h-.84v-4.56H34v4.56h-.83v-3.87h-2zm4.85 0h-.84v-4.56h3.64v4.56H38v-3.87h-2zm4.22 0h-.89l1.72-4.56h.84l1.72 4.56h-.89l-.34-1h-1.82zm1.94-1.65l-.69-2-.69 2zm6.16-2.91h1l-2 2.11 2.19 2.45h-1L46.49 34v2.36h-.83v-4.54h.83v2zm3.68-.14h.3a2.67 2.67 0 0 1 .45.08 2.53 2.53 0 0 1 .52.22 1.68 1.68 0 0 1 .47.42 2.09 2.09 0 0 1 .36.68 3.24 3.24 0 0 1 .13 1 3.19 3.19 0 0 1-.13 1 2.09 2.09 0 0 1-.36.68 1.68 1.68 0 0 1-.47.42 2.53 2.53 0 0 1-.52.22 1.94 1.94 0 0 1-.45.08 2 2 0 0 1-.3 0 2 2 0 0 1-.31 0 2.14 2.14 0 0 1-.45-.08 2.71 2.71 0 0 1-.51-.22 1.58 1.58 0 0 1-.48-.42 2.29 2.29 0 0 1-.35-.68 3.17 3.17 0 0 1-.14-1 3.21 3.21 0 0 1 .14-1 2.29 2.29 0 0 1 .35-.68 1.58 1.58 0 0 1 .48-.42 2.71 2.71 0 0 1 .51-.22 3.08 3.08 0 0 1 .45-.08zm0 .69a1.28 1.28 0 0 0-.69.17 1.26 1.26 0 0 0-.4.43 1.69 1.69 0 0 0-.2.57 2.69 2.69 0 0 0 0 1.13 1.56 1.56 0 0 0 .2.56 1.17 1.17 0 0 0 .4.43 1.28 1.28 0 0 0 .69.17 1.24 1.24 0 0 0 .68-.17 1.2 1.2 0 0 0 .41-.43 1.78 1.78 0 0 0 .2-.56 3.22 3.22 0 0 0 0-1.13 1.94 1.94 0 0 0-.2-.57 1.29 1.29 0 0 0-.41-.43 1.24 1.24 0 0 0-.68-.17zm3.91.4v3.61h-.84v-4.56h1.25l1.24 3.46 1.25-3.46h1.24v4.56h-.83v-3.61l-1.35 3.61h-.62zM62 36.38h-.84v-4.56h3.69v4.56H64v-3.87h-2zm4.27 0h-.89l1.72-4.56h.84l1.72 4.56h-.9l-.33-1h-1.82zm1.94-1.65l-.69-2-.69 2zM71 36.38h-.83v-4.56H71v1.83h2v-1.83h.84v4.56H73v-2h-2zm7-4.56h.82v4.56H78v-3.33l-2.17 3.33H75v-4.56h.83v3.34zm4.93 0h.82v4.56h-.84v-3.33l-2.17 3.33h-.81v-4.56h.83v3.34zm-1.79-1.19a.52.52 0 0 0 .22.39.84.84 0 0 0 .48.13.81.81 0 0 0 .47-.13.49.49 0 0 0 .22-.39h.68a1.32 1.32 0 0 1-.15.39 1.14 1.14 0 0 1-.27.31 1.45 1.45 0 0 1-.41.22 1.81 1.81 0 0 1-.54.07 1.84 1.84 0 0 1-.55-.07 1.39 1.39 0 0 1-.4-.22 1 1 0 0 1-.28-.31 1.07 1.07 0 0 1-.14-.39z" fill="#fff"/><path class="cls-2" d="M121.07 31.77h3.23v4.61h-.93v-3.83H122v2a7.77 7.77 0 0 1-.06 1.18.8.8 0 0 1-.27.52 1 1 0 0 1-.68.19h-.6v-.72h.21a.63.63 0 0 0 .39-.08c.07 0 .1-.18.1-.38v-3.49zm4.19 4.61v-4.61h3.42v.78h-2.49v1h2.31v.78h-2.31v1.26h2.58v.77zm5.33 0v-3.83h-1.36v-.78h3.66v.78h-1.37v3.83z"/></svg>